<svg aria-hidden="true" style="position: absolute; width: 0; height: 0; overflow: hidden;" version="1.1" xmlns="http://www.w3.org/2000/svg" xmlns:xlink="http://www.w3.org/1999/xlink">
<defs>
<symbol id="logo" viewBox="0 0 267 32">
<path fill="#fefeff" style="fill: var(--color1, #fefeff)" d="M101.147 9.953h-23.578v4.321h23.578c-0.055 0.17 0.171 0.374 0.171 0.433v6.911c0 0.017-0.239 0.26-0.256 0.26h-23.493v4.321h23.578v7.775h-31.097c0.055-0.17-0.171-0.375-0.171-0.433v-30.932c0-0.017 0.239-0.26 0.257-0.26h30.926c0.017 0 0.256 0.239 0.256 0.26v6.911c0 0.056-0.226 0.264-0.171 0.433z"></path>
<path fill="#fefeff" style="fill: var(--color1, #fefeff)" d="M262.185 2.349c1.655 0.236 3.655 2.157 4.137 3.762 0.444 1.477 0.404 9.207 0.201 10.993-0.238 2.098-2.283 4.401-4.379 4.73-0.626 0.097-1.269-0.042-1.844 0.042-0.236 0.035-0.293-0.097-0.252 0.26l5.98 11.839h-7.947l-6.663-12.095h-7.605v11.665c0 0.055-0.226 0.264-0.171 0.433h-7.348v-31.629h25.89zM259.022 9.953h-15.205v4.321h15.205v-4.321z"></path>
<path fill="#fefeff" style="fill: var(--color1, #fefeff)" d="M187.945 12.717h-7.348v-2.764h-17.257v16.243h17.257v-2.764h7.348c0.636 4.421 0.331 9.834-5.061 10.521-6.964-0.333-14.441 0.517-21.345 0.028-3.511-0.246-5.501-2.462-5.724-5.961-0.427-6.672 0.318-13.826 0.031-20.55 0.239-2.531 2.267-4.889 4.842-5.125 7.159-0.662 15.304 0.517 22.566 0 5.074 0.843 5.292 6.173 4.692 10.375v-0.003z"></path>
<path fill="#fefeff" style="fill: var(--color1, #fefeff)" d="M31.268 9.953h-23.749v4.321h23.749c-0.055 0.17 0.171 0.374 0.171 0.433v6.911c0 0.017-0.239 0.26-0.257 0.26h-23.407c-0.017 0-0.256 0.239-0.256 0.26v11.835h-7.262c-0.017 0-0.256-0.239-0.256-0.26v-31.105c0-0.017 0.239-0.26 0.256-0.26h30.926c0.017 0 0.257 0.239 0.257 0.26v6.911c0 0.056-0.226 0.264-0.171 0.433z"></path>
<path fill="#fefeff" style="fill: var(--color1, #fefeff)" d="M115.501 2.349c2.075 3.395 4.407 6.637 6.749 9.845l7.006-9.845h8.972l-10.709 15.809 10.709 15.813h-8.972l-7.006-10.018-7.006 10.018h-8.715c-0.021 0-0.342-0.25-0.174-0.343l10.654-15.608-10.736-15.671h9.228z"></path>
<path fill="#fefeff" style="fill: var(--color1, #fefeff)" d="M193.326 33.971l14.176-31.456 8.555-0.18 0.267 0.121 14.773 31.164c0.151 0.108-0.16 0.354-0.185 0.354h-7.945l-11.020-22.637-10.677 22.637-7.943-0.004z"></path>
<path fill="#fefeff" style="fill: var(--color1, #fefeff)" d="M43.912 2.349v23.847h20.761c0.017 0 0.257 0.239 0.257 0.26v7.258c0 0.017-0.239 0.26-0.257 0.26h-28.276v-31.626h7.515z"></path>
<path fill="#fefeff" style="fill: var(--color1, #fefeff)" d="M143.35 33.971v-31.622h7.262c0.017 0 0.256 0.239 0.256 0.26v31.102c0 0.017-0.239 0.26-0.256 0.26h-7.262z"></path>
</symbol>
<symbol id="burger" viewBox="0 0 32 32">
<path fill="none" stroke="#bdbdbe" style="stroke: var(--color1, #bdbdbe)" stroke-linejoin="round" stroke-linecap="round" stroke-miterlimit="4" stroke-width="2" d="M4 16h24M4 8h24M4 24h24"></path>
</symbol>
<symbol id="check" viewBox="0 0 32 32">
<path fill="none" stroke="#fefeff" style="stroke: var(--color1, #fefeff)" stroke-linejoin="round" stroke-linecap="round" stroke-miterlimit="4" stroke-width="2" d="M29.334 14.781v1.227c-0.002 2.875-0.933 5.673-2.654 7.976s-4.141 3.988-6.899 4.803c-2.757 0.815-5.704 0.717-8.401-0.279s-5-2.838-6.565-5.25c-1.565-2.412-2.308-5.265-2.119-8.134s1.301-5.6 3.169-7.786c1.868-2.186 4.393-3.709 7.197-4.343s5.739-0.344 8.365 0.826M29.334 5.333l-13.333 13.347-4-4"></path>
</symbol>
<symbol id="car-doors" viewBox="0 0 32 32">
<path fill="#fefeff" style="fill: var(--color1, #fefeff)" d="M23.852 11.999v5.394c1.491 1.386 3.027 2.742 4.524 4.128 0.351 0.324 1.347 1.148 1.524 1.492 0.417 0.813-0.557 1.655-1.419 1.218-1.536-1.319-2.995-2.721-4.5-4.072l-0.128-0.058v6.485c0 1.636-2.119 3.394-3.903 3.371-2.581-0.106-5.289 0.136-7.855 0-1.696-0.090-3.212-1.1-3.744-2.581-0.062-0.174-0.201-0.628-0.201-0.79v-6.485l-0.128 0.058-4.465 4.065c-0.985 0.487-2.035-0.565-1.317-1.397l5.91-5.394v-5.433l-0.128 0.058-4.492 4.079c-0.877 0.423-1.873-0.432-1.412-1.25 1.948-1.888 4.018-3.682 6.011-5.536 0.068-2.563-0.369-4.792 1.499-6.928 2.019-2.31 4.696-2.545 7.761-2.379 3.025 0.164 5.679 2.206 6.308 4.914 0.333 1.436 0.056 2.936 0.179 4.394l5.74 5.2c0.907 0.776 0.044 2.056-1.106 1.594-1.555-1.312-3.012-2.732-4.527-4.086l-0.128-0.058-0-0zM21.803 8.65c-0.041-1.714 0.29-3.303-0.818-4.803-1.476-1.997-3.859-2.083-6.285-1.935-2.122 0.129-3.956 1.568-4.396 3.466-0.241 1.040-0.040 2.208-0.106 3.272 0.881-0.656 1.898-1.072 3.048-1.131 1.938-0.1 4.026 0.043 5.97 0.046 0.978 0.121 1.83 0.528 2.587 1.085zM13.218 9.401c-1.828 0.216-2.922 1.765-3.023 3.356-0.175 2.762 0.137 5.677 0 8.455 0.083 0.899 0.665 1.797 1.731 1.887l8.151 0.002c1.029-0.091 1.652-0.967 1.728-1.85-0.159-2.803 0.205-5.791 0-8.572-0.118-1.592-1.327-3.181-3.179-3.291-1.753-0.105-3.642 0.073-5.409 0.013h0zM21.804 24.542c-0.545 0.236-1.073 0.398-1.683 0.43-2.706 0.142-5.56-0.112-8.282 0-0.581-0.038-1.121-0.206-1.641-0.43v1.928c0 0.862 1.161 1.567 2.025 1.618 2.456 0.146 5.083-0.115 7.557 0 0.878 0.042 2.025-0.852 2.025-1.657v-1.889l-0-0z"></path>
</symbol>
<symbol id="manual" viewBox="0 0 32 32">
<path fill="none" stroke="#fefeff" style="stroke: var(--color1, #fefeff)" stroke-linejoin="round" stroke-linecap="round" stroke-miterlimit="4" stroke-width="2" d="M6.667 10.667c-0.707 0-1.386-0.281-1.886-0.781s-0.781-1.178-0.781-1.886c0-0.707 0.281-1.386 0.781-1.886s1.178-0.781 1.886-0.781c0.707 0 1.386 0.281 1.886 0.781s0.781 1.178 0.781 1.886c0 0.707-0.281 1.386-0.781 1.886s-1.178 0.781-1.886 0.781zM6.667 10.667v10.667M16 10.667c-0.707 0-1.386-0.281-1.886-0.781s-0.781-1.178-0.781-1.886c0-0.707 0.281-1.386 0.781-1.886s1.178-0.781 1.886-0.781c0.707 0 1.386 0.281 1.886 0.781s0.781 1.178 0.781 1.886c0 0.707-0.281 1.386-0.781 1.886s-1.178 0.781-1.886 0.781zM16 10.667v10.667M6.667 21.333c0.707 0 1.386 0.281 1.886 0.781s0.781 1.178 0.781 1.886-0.281 1.385-0.781 1.886c-0.5 0.5-1.178 0.781-1.886 0.781s-1.386-0.281-1.886-0.781c-0.5-0.5-0.781-1.178-0.781-1.886s0.281-1.386 0.781-1.886c0.5-0.5 1.178-0.781 1.886-0.781zM16 21.333c0.707 0 1.386 0.281 1.886 0.781s0.781 1.178 0.781 1.886-0.281 1.385-0.781 1.886c-0.5 0.5-1.178 0.781-1.886 0.781s-1.386-0.281-1.886-0.781c-0.5-0.5-0.781-1.178-0.781-1.886s0.281-1.386 0.781-1.886c0.5-0.5 1.178-0.781 1.886-0.781zM22.667 8c0 0.707 0.281 1.386 0.781 1.886s1.178 0.781 1.886 0.781c0.707 0 1.385-0.281 1.886-0.781s0.781-1.178 0.781-1.886-0.281-1.386-0.781-1.886c-0.5-0.5-1.178-0.781-1.886-0.781s-1.386 0.281-1.886 0.781c-0.5 0.5-0.781 1.178-0.781 1.886z"></path>
<path fill="none" stroke="#fefeff" style="stroke: var(--color1, #fefeff)" stroke-linejoin="round" stroke-linecap="round" stroke-miterlimit="4" stroke-width="2" d="M25.334 10.667v2.667c0 0.707-0.281 1.386-0.781 1.886s-1.178 0.781-1.886 0.781h-16"></path>
</symbol>
<symbol id="luggage" viewBox="0 0 32 32">
<path fill="none" stroke="#fefeff" style="stroke: var(--color1, #fefeff)" stroke-linejoin="round" stroke-linecap="round" stroke-miterlimit="4" stroke-width="2" d="M10.666 29.333v-2.667M12.666 20v-10.667M21.333 29.333v-2.667M19.333 20v-10.667M11.733 26.667h8.533c2.24 0 3.36 0 4.216-0.436 0.753-0.384 1.364-0.995 1.748-1.748 0.436-0.856 0.436-1.976 0.436-4.216v-11.2c0-2.24 0-3.36-0.436-4.216-0.384-0.753-0.995-1.365-1.748-1.748-0.856-0.436-1.976-0.436-4.216-0.436h-8.533c-2.24 0-3.36 0-4.216 0.436-0.753 0.384-1.365 0.995-1.748 1.748-0.436 0.856-0.436 1.976-0.436 4.216v11.2c0 2.24 0 3.36 0.436 4.216 0.383 0.753 0.995 1.365 1.748 1.748 0.856 0.436 1.976 0.436 4.216 0.436z"></path>
</symbol>
<symbol id="users" viewBox="0 0 32 32">
<path fill="none" stroke="#fefeff" style="stroke: var(--color1, #fefeff)" stroke-linejoin="round" stroke-linecap="round" stroke-miterlimit="4" stroke-width="2" d="M29.334 28v-2.667c0-2.485-1.7-4.573-4-5.165M20.667 4.388c1.955 0.791 3.333 2.707 3.333 4.946s-1.379 4.154-3.333 4.946M22.667 28c0-2.485 0-3.728-0.406-4.708-0.541-1.307-1.58-2.345-2.886-2.886-0.98-0.406-2.223-0.406-4.708-0.406h-4c-2.485 0-3.728 0-4.708 0.406-1.307 0.541-2.345 1.58-2.886 2.886-0.406 0.98-0.406 2.223-0.406 4.708M18 9.333c0 2.946-2.388 5.333-5.333 5.333s-5.333-2.388-5.333-5.333c0-2.946 2.388-5.333 5.333-5.333s5.333 2.388 5.333 5.333z"></path>
</symbol>
<symbol id="plus" viewBox="0 0 33 32">
<path fill="none" stroke="#fefeff" style="stroke: var(--color1, #fefeff)" stroke-linejoin="round" stroke-linecap="round" stroke-miterlimit="4" stroke-width="2.6667" d="M16.667 6.667v18.667M7.333 16h18.667"></path>
</symbol>
<symbol id="minus" viewBox="0 0 33 32">
<path fill="none" stroke="#fefeff" style="stroke: var(--color1, #fefeff)" stroke-linejoin="round" stroke-linecap="round" stroke-miterlimit="4" stroke-width="2.6667" d="M7.333 16h18.667"></path>
</symbol>
<symbol id="infinity" viewBox="0 0 32 32">
<path fill="none" stroke="#fefeff" style="stroke: var(--color1, #fefeff)" stroke-linejoin="round" stroke-linecap="round" stroke-miterlimit="4" stroke-width="3.2" d="M24.237 10.667c6.795 0 6.795 10.667 0 10.667-6.793 0-9.511-10.667-16.985-10.667-6.113 0-6.113 10.667 0 10.667 7.475 0 10.192-10.667 16.987-10.667h-0.001z"></path>
</symbol>
<symbol id="globe" viewBox="0 0 32 32">
<path fill="none" stroke="#bdbdbe" style="stroke: var(--color2, #bdbdbe)" stroke-linejoin="round" stroke-linecap="round" stroke-miterlimit="4" stroke-width="3.2" d="M20 3.277c-1.263-0.397-2.606-0.61-4-0.61-7.364 0-13.333 5.97-13.333 13.333s5.97 13.333 13.333 13.333c7.364 0 13.333-5.969 13.333-13.333 0-2.287-0.576-4.44-1.591-6.321M22.666 7.667h0.007M14 29.184l0-2.938c0-0.159 0.057-0.313 0.161-0.434l3.314-3.867c0.272-0.318 0.188-0.805-0.176-1.013l-3.808-2.176c-0.103-0.059-0.189-0.145-0.248-0.248l-2.482-4.35c-0.129-0.226-0.379-0.357-0.638-0.334l-7.37 0.656M28 8c0 2.946-2.667 5.333-5.333 8-2.667-2.667-5.333-5.055-5.333-8s2.388-5.333 5.333-5.333c2.946 0 5.333 2.388 5.333 5.333zM23 7.667c0 0.184-0.149 0.333-0.333 0.333s-0.333-0.149-0.333-0.333c0-0.184 0.149-0.333 0.333-0.333s0.333 0.149 0.333 0.333z"></path>
</symbol>
<symbol id="petrol" viewBox="0 0 32 32">
<path fill="none" stroke="#bdbdbe" style="stroke: var(--color2, #bdbdbe)" stroke-linejoin="round" stroke-linecap="butt" stroke-miterlimit="4" stroke-width="3.2" d="M28 28v-24h-2l-6 6.667h-12l-4 4v13.333h24z"></path>
<path fill="none" stroke="#bdbdbe" style="stroke: var(--color2, #bdbdbe)" stroke-linejoin="round" stroke-linecap="round" stroke-miterlimit="4" stroke-width="3.2" d="M8 10.667l6.667-6.667h12M7.333 5.333l-4.667 4.667M13.762 19.259c0.954-1.253 1.69-2.986 2.087-3.926 0.696 0.94 2.207 3.299 2.684 4.553 0.596 1.567-0.895 3.447-2.684 3.447s-3.28-2.507-2.087-4.074z"></path>
</symbol>
<symbol id="seat" viewBox="0 0 32 32">
<path fill="#bdbdbe" style="fill: var(--color2, #bdbdbe)" d="M9.687 8.911c1.407 0 2.824-0.659 3.723-2.147 1.609-2.659-0.046-6.367-3.134-6.738-0.147-0.018-0.389-0.025-0.632-0.025-0.257 0-0.517 0.010-0.673 0.025-1.967 0.211-3.662 2.138-3.792 4.091-0.196 2.931 2.143 4.794 4.509 4.794z"></path>
<path fill="#bdbdbe" style="fill: var(--color2, #bdbdbe)" d="M23.425 18.188c-1.046 0-2.206 0.287-3.105 0.513-1.558 0.39-3.799 1.398-5.459 1.398-0.176 0-0.345-0.011-0.507-0.036-3.539-0.539-3.63-4.23-4.655-6.939-0.419-1.105-1.276-3.297-2.696-3.297-0.074 0-0.15 0.006-0.226 0.018-1.46 0.233-2.759 1.817-3.309 3.108-1.995 4.678-0.097 11.474 3.814 14.653-0.151 1.305-0.425 2.607-0.485 3.919 0.033 0.202 0.244 0.463 0.459 0.475h12.503c0.35-0.004 0.536-0.278 0.583-0.601l-0.425-3.107c0.603-0.367 1.253-0.642 1.854-1.016 2.305-1.432 4.619-3.925 4.35-6.856-0.16-1.747-1.332-2.234-2.694-2.234l-0.001 0.002zM20.438 25.112c-0.224 0.139-0.494 0.279-0.78 0.425-0.321 0.166-0.685 0.353-1.054 0.577l-1.425 0.867 0.227 1.658 0.112 0.816h-7.935c0.002-0.016 0.005-0.030 0.007-0.046 0.074-0.487 0.148-0.992 0.209-1.509l0.161-1.392-1.084-0.881c-1.475-1.199-2.666-3.183-3.268-5.444-0.603-2.263-0.535-4.533 0.188-6.228 0.223-0.525 0.606-1.008 0.929-1.303 0.152 0.278 0.351 0.708 0.603 1.376 0.183 0.486 0.344 1.055 0.513 1.657 0.352 1.253 0.752 2.675 1.546 3.92 1.067 1.672 2.609 2.673 4.585 2.973 0.282 0.042 0.581 0.064 0.887 0.064 1.529 0 3.143-0.535 4.567-1.007 0.561-0.187 1.092-0.362 1.505-0.465 0.737-0.184 1.746-0.438 2.492-0.438 0.068 0 0.127 0.003 0.176 0.006 0.098 1.714-1.633 3.422-3.164 4.372l0.002 0.001z"></path>
<path fill="#bdbdbe" style="fill: var(--color2, #bdbdbe)" d="M13.167 10.205c-0.864 0.034-1.842 0.492-2.429 1.125l-0.017 0.080c0.371 0.861 0.694 1.742 0.986 2.633 0.537 1.638 0.678 3.884 2.66 4.385 1.421 0.359 3.283-0.816 4.712-1.038l0.148-0.103-1.983-3.861 4.937-3.722c1.437-1.512 0.272-3.999-1.784-3.853-0.466 0.033-0.794 0.202-1.177 0.442-0.763 0.479-5.093 3.968-5.429 3.976-0.174 0.004-0.38-0.074-0.624-0.064h-0.001z"></path>
<path fill="#bdbdbe" style="fill: var(--color2, #bdbdbe)" d="M29.861 16.104c-0.502-0.411-0.923-0.468-1.534-0.582-1.451-0.272-3.070-0.498-4.539-0.687-0.408-0.052-0.765-0.122-1.124-0.122-0.304 0-0.611 0.051-0.949 0.206-0.863 0.396-1.18 1.35-1.616 2.124 0.775-0.061 1.553-0.316 2.339-0.399 0.303-0.032 0.611-0.050 0.918-0.050 1.64 0 3.269 0.507 3.984 2.165 0.094 0.217 0.31 1.19 0.357 1.234 0.080 0.072 0.261 0.099 0.477 0.099 0.415 0 0.962-0.103 1.168-0.198 1.496-0.68 1.8-2.739 0.518-3.79z"></path>
</symbol>
<symbol id="navigation" viewBox="0 0 32 32">
<path fill="none" stroke="#bdbdbe" style="stroke: var(--color2, #bdbdbe)" stroke-linejoin="round" stroke-linecap="round" stroke-miterlimit="4" stroke-width="3.2" d="M4.552 14.326c-0.794-0.309-1.191-0.463-1.307-0.685-0.1-0.193-0.101-0.422-0-0.615 0.116-0.223 0.512-0.377 1.306-0.687l22.517-8.787c0.716-0.28 1.074-0.419 1.303-0.343 0.199 0.066 0.355 0.222 0.421 0.421 0.076 0.229-0.063 0.587-0.343 1.303l-8.787 22.517c-0.31 0.793-0.464 1.19-0.687 1.306-0.193 0.1-0.423 0.1-0.615-0-0.222-0.116-0.377-0.513-0.685-1.307l-3.504-9.011c-0.063-0.161-0.094-0.242-0.142-0.309-0.043-0.060-0.095-0.113-0.156-0.156-0.068-0.048-0.148-0.080-0.31-0.142l-9.011-3.504z"></path>
</symbol>
<symbol id="wifi" viewBox="0 0 32 32">
<path fill="none" stroke="#bdbdbe" style="stroke: var(--color2, #bdbdbe)" stroke-linejoin="round" stroke-linecap="round" stroke-miterlimit="4" stroke-width="3.2" d="M16 26h0.013M30.409 11.601c-3.796-3.478-8.854-5.601-14.409-5.601s-10.613 2.123-14.409 5.601M6.309 16.324c2.584-2.276 5.976-3.657 9.691-3.657s7.107 1.381 9.691 3.657M20.931 21.033c-1.359-1.065-3.071-1.7-4.931-1.7-1.889 0-3.624 0.654-4.993 1.749"></path>
</symbol>
<symbol id="driver" viewBox="0 0 32 32">
<path fill="#bdbdbe" style="fill: var(--color2, #bdbdbe)" d="M14.032 12.257c0.515 0.104 1.026 0.155 1.527 0.155 1.758 0 3.387-0.63 4.614-1.818 1.84-1.779 2.414-4.397 1.463-6.668-0.795-1.9-2.652-3.351-4.846-3.789-2.033-0.405-4.083 0.1-5.626 1.386-1.937 1.616-2.694 4.203-1.927 6.592 0.693 2.158 2.44 3.667 4.795 4.142h0.001zM11.689 5.879c0.108-1.413 1.116-2.715 2.51-3.241 0.432-0.163 0.873-0.244 1.311-0.244 0.765 0 1.523 0.245 2.216 0.727 1.196 0.832 1.779 2.272 1.525 3.761-0.235 1.37-1.151 2.46-2.451 2.916-1.455 0.51-2.566 0.118-3.241-0.302-1.225-0.761-1.977-2.215-1.869-3.617h-0.001z"></path>
<path fill="#bdbdbe" style="fill: var(--color2, #bdbdbe)" d="M19.758 13.757h-8.458c-3.636 0-6.594 2.967-6.594 6.614v3.152c0 0.776 0.649 1.404 1.449 1.404h1.745c0.098 2.050 1.072 3.96 2.721 5.304 1.418 1.156 3.176 1.77 4.984 1.77 0.499 0 1.002-0.047 1.502-0.142 3.46-0.658 6.009-3.533 6.213-6.929 0.069-0.002 0.141-0.002 0.212-0.002h0.139c0.075 0 0.15 0.001 0.227 0.003 0.048 0.001 0.098 0.001 0.148 0.002 0-0.002-0.001-0.003-0.002-0.005h0.858c0.801 0 1.449-0.628 1.449-1.404v-3.152c0-3.646-2.958-6.613-6.594-6.613v-0.002zM9.074 20.522c-0.344 0.533-0.566 1.054-0.783 1.597h-0.685v-1.749c0-2.099 1.658-3.806 3.695-3.806h8.458c2.038 0 3.695 1.707 3.695 3.806v1.749h-0.549c-0.548-1.676-1.815-3.177-3.491-4.1-1.729-0.952-3.752-1.218-5.696-0.748-1.946 0.47-3.596 1.624-4.645 3.251zM20.36 23.226h-2.172c-0.485-0.936-1.464-1.524-2.586-1.524s-2.1 0.588-2.585 1.524h-2.295c0.291-1.015 0.906-1.923 1.737-2.549 1.243-0.936 2.838-1.271 4.376-0.917 1.655 0.38 3.062 1.69 3.591 3.256-0.027 0.068-0.049 0.137-0.066 0.209v0.001zM14.25 29.255c-1.717-0.49-3.076-1.82-3.535-3.463h2.284c0.285 0.59 0.796 0.976 1.251 1.239v2.224h-0.001zM15.802 24.672c-0.018 0.028-0.067 0.103-0.272 0.079-0.156-0.019-0.174-0.165-0.175-0.228 0-0.067 0.016-0.224 0.194-0.249 0.179-0.025 0.226 0.045 0.246 0.074 0.060 0.090 0.063 0.235 0.006 0.324l0.001-0.001zM16.955 29.253v-2.216c0.453-0.255 0.962-0.636 1.251-1.244h2.284c-0.456 1.634-1.814 2.964-3.536 3.46v-0.001z"></path>
</symbol>
<symbol id="headphones" viewBox="0 0 32 32">
<path fill="none" stroke="#bdbdbe" style="stroke: var(--color2, #bdbdbe)" stroke-linejoin="round" stroke-linecap="round" stroke-miterlimit="4" stroke-width="3.2" d="M28 24v-8c0-6.627-5.373-12-12-12s-12 5.373-12 12v8M7.333 28c-1.841 0-3.333-1.492-3.333-3.333v-2.667c0-1.841 1.492-3.333 3.333-3.333s3.333 1.492 3.333 3.333v2.667c0 1.841-1.492 3.333-3.333 3.333zM24.667 28c-1.841 0-3.333-1.492-3.333-3.333v-2.667c0-1.841 1.492-3.333 3.333-3.333s3.333 1.492 3.333 3.333v2.667c0 1.841-1.492 3.333-3.333 3.333z"></path>
</symbol>
<symbol id="circle" viewBox="0 0 32 32">
<path fill="none" stroke="#f04438" style="stroke: var(--color3, #f04438)" stroke-linejoin="round" stroke-linecap="round" stroke-miterlimit="4" stroke-width="2" d="M16 10.666v5.333M16 21.333h0.013M29.334 16c0 7.364-5.969 13.333-13.333 13.333s-13.333-5.97-13.333-13.333c0-7.364 5.97-13.333 13.333-13.333s13.333 5.97 13.333 13.333z"></path>
</symbol>
<symbol id="check-active" viewBox="0 0 32 32">
<path fill="none" stroke="#72d38d" style="stroke: var(--color2, #72d38d)" stroke-linejoin="round" stroke-linecap="round" stroke-miterlimit="4" stroke-width="2" d="M29.334 14.781v1.227c-0.002 2.875-0.933 5.673-2.654 7.976s-4.141 3.988-6.899 4.803c-2.757 0.815-5.704 0.717-8.401-0.279s-5-2.838-6.565-5.25c-1.565-2.412-2.308-5.265-2.119-8.134s1.301-5.6 3.169-7.786c1.868-2.186 4.393-3.709 7.197-4.343s5.739-0.344 8.365 0.826M29.334 5.333l-13.333 13.347-4-4"></path>
</symbol>
<symbol id="check" viewBox="0 0 32 32">
<path fill="none" stroke="#fefeff" style="stroke: var(--color1, #fefeff)" stroke-linejoin="round" stroke-linecap="round" stroke-miterlimit="4" stroke-width="2" d="M29.334 14.781v1.227c-0.002 2.875-0.933 5.673-2.654 7.976s-4.141 3.988-6.899 4.803c-2.757 0.815-5.704 0.717-8.401-0.279s-5-2.838-6.565-5.25c-1.565-2.412-2.308-5.265-2.119-8.134s1.301-5.6 3.169-7.786c1.868-2.186 4.393-3.709 7.197-4.343s5.739-0.344 8.365 0.826M29.334 5.333l-13.333 13.347-4-4"></path>
</symbol>
</defs>
</svg>
